<svg width="94" height="72" viewBox="0 0 94 72" fill="none" xmlns="http://www.w3.org/2000/svg">
<path d="M80.981 64.7514C98.0112 55.9417 97.181 41.2288 79.1267 31.8893C61.0724 22.5498 32.6309 22.1203 15.6007 30.9301C-1.42947 39.7398 -0.599279 54.4527 17.455 63.7922C35.5093 73.1317 63.9508 73.5612 80.981 64.7514Z" fill="url(#paint0_radial_22748_5217)" fill-opacity="0.15"/>
<path fill-rule="evenodd" clip-rule="evenodd" d="M24.4434 32.6649L38.2091 40.6425L38.3731 40.5135L51.7107 48.2562L32.0687 62.1828L0.129988 43.5929L24.4434 32.6649Z" fill="url(#paint1_linear_22748_5217)" fill-opacity="0.4"/>
<path d="M37.6416 25.556L37.6849 40.8677L24.3581 48.5615L24.3148 33.2501L37.6416 25.556Z" fill="#F5F5F5"/>
<path d="M10.5792 40.5567L24.3543 48.5623L24.3108 33.2503L10.5353 25.2453L10.5792 40.5567Z" fill="#BDBDBD"/>
<path d="M14.3038 32.4334L11.733 30.9395L11.7249 28.082L14.2954 29.5758L14.3038 32.4334Z" fill="#BAB7B1"/>
<path d="M14.1365 32.1594L11.8917 30.8548L11.8849 28.3597L14.1298 29.664L14.1365 32.1594Z" fill="#616161"/>
<path d="M12.2541 30.7121L12.2479 28.5668L11.8907 28.3594L11.8976 30.8545L14.1426 32.1592L14.1416 31.8089L12.2541 30.7121Z" fill="#F5F5F5"/>
<path d="M14.3038 37.0936L11.733 35.5997L11.7249 32.7422L14.2954 34.2359L14.3038 37.0936Z" fill="#BAB7B1"/>
<path d="M14.1365 36.8156L11.8917 35.5111L11.8849 33.016L14.1298 34.3202L14.1365 36.8156Z" fill="#616161"/>
<path d="M12.2541 35.3722L12.2479 33.227L11.8907 33.0195L11.8976 35.5147L14.1426 36.8193L14.1416 36.4691L12.2541 35.3722Z" fill="#F5F5F5"/>
<path d="M14.3038 41.7498L11.733 40.2559L11.7249 37.3984L14.2954 38.8922L14.3038 41.7498Z" fill="#BAB7B1"/>
<path d="M14.1365 41.4797L11.8917 40.1751L11.8849 37.68L14.1298 38.9843L14.1365 41.4797Z" fill="#616161"/>
<path d="M12.2541 40.0285L12.2479 37.8833L11.8907 37.6758L11.8976 40.1709L14.1426 41.4756L14.1416 41.1253L12.2541 40.0285Z" fill="#F5F5F5"/>
<path d="M18.4561 34.8397L15.8853 33.3458L15.8772 30.4883L18.4478 31.982L18.4561 34.8397Z" fill="#BAB7B1"/>
<path d="M18.2929 34.5653L16.0481 33.2608L16.0413 30.7657L18.2858 32.07L18.2929 34.5653Z" fill="#616161"/>
<path d="M16.4025 33.1183L16.3963 30.9731L16.0392 30.7656L16.0461 33.2608L18.2911 34.5654L18.29 34.2152L16.4025 33.1183Z" fill="#F5F5F5"/>
<path d="M18.4561 39.4998L15.8853 38.0059L15.8772 35.1484L18.4478 36.6422L18.4561 39.4998Z" fill="#BAB7B1"/>
<path d="M18.2929 39.2216L16.0481 37.917L16.0413 35.4219L18.2858 36.7263L18.2929 39.2216Z" fill="#616161"/>
<path d="M16.4025 37.7746L16.3963 35.6293L16.0392 35.4219L16.0461 37.917L18.2911 39.2217L18.29 38.8714L16.4025 37.7746Z" fill="#F5F5F5"/>
<path d="M18.4561 44.1561L15.8853 42.6622L15.8772 39.8047L18.4478 41.2984L18.4561 44.1561Z" fill="#BAB7B1"/>
<path d="M18.2929 43.8856L16.0481 42.5811L16.0413 40.086L18.2858 41.3904L18.2929 43.8856Z" fill="#616161"/>
<path d="M16.4025 42.4347L16.3963 40.2895L16.0392 40.082L16.0461 42.5772L18.2911 43.8818L18.29 43.5316L16.4025 42.4347Z" fill="#F5F5F5"/>
<path d="M23.2139 37.6014L20.6431 36.1075L20.6351 33.25L23.2056 34.7437L23.2139 37.6014Z" fill="#BAB7B1"/>
<path d="M23.0468 37.3231L20.802 36.0186L20.7952 33.5235L23.0397 34.8279L23.0468 37.3231Z" fill="#616161"/>
<path d="M21.1642 35.8761L21.158 33.7309L20.8009 33.5234L20.8078 36.0186L23.0528 37.3233L23.0517 36.973L21.1642 35.8761Z" fill="#F5F5F5"/>
<path d="M23.2139 42.2576L20.6431 40.7637L20.6351 37.9062L23.2056 39.4L23.2139 42.2576Z" fill="#BAB7B1"/>
<path d="M23.047 41.9833L20.8022 40.6788L20.7954 38.1837L23.0399 39.488L23.047 41.9833Z" fill="#616161"/>
<path d="M21.1642 40.5324L21.158 38.3872L20.8009 38.1797L20.8078 40.6748L23.0528 41.9795L23.0517 41.6292L21.1642 40.5324Z" fill="#F5F5F5"/>
<path d="M23.2139 46.9178L20.6431 45.4239L20.6351 42.5664L23.2056 44.0602L23.2139 46.9178Z" fill="#BAB7B1"/>
<path d="M23.0468 46.6434L20.802 45.3389L20.7952 42.8438L23.0397 44.1482L23.0468 46.6434Z" fill="#616161"/>
<path d="M21.1642 45.1964L21.158 43.0512L20.8009 42.8438L20.8078 45.3389L23.0528 46.6436L23.0517 46.2933L21.1642 45.1964Z" fill="#F5F5F5"/>
<path d="M37.5908 11.97L37.6342 27.2817L24.3073 34.9756L24.264 19.6642L37.5908 11.97Z" fill="#F5F5F5"/>
<path d="M10.5318 26.9703L24.3068 34.9754L24.2636 19.6638L10.4884 11.659L10.5318 26.9703Z" fill="#BDBDBD"/>
<path d="M23.815 3.96348L10.4885 11.6577L24.2636 19.6628L37.5902 11.9689L23.815 3.96348Z" fill="#9E9E9E"/>
<path d="M35.1134 12.6484L23.8368 6.09547L12.9679 12.3702L24.2444 18.9234L35.1134 12.6484Z" fill="white"/>
<path d="M18.2044 11.972L16.6055 12.9013L14.9962 11.9723L16.5951 11.043L18.2044 11.972Z" fill="#616161"/>
<path d="M18.2065 11.9688L18.2045 12.6672L16.6056 13.5965L16.6076 12.8981L18.2065 11.9688Z" fill="#BFBFBF"/>
<path d="M16.6071 12.898L16.605 13.5965L14.9962 12.6672L14.9983 11.9688L16.6071 12.898Z" fill="#A1A3A4"/>
<path d="M21.7825 9.79624L20.1837 10.7256L18.5743 9.79657L20.1732 8.86719L21.7825 9.79624Z" fill="#616161"/>
<path d="M21.7807 9.79688L21.7786 10.4953L20.1798 11.4247L20.1819 10.7263L21.7807 9.79688Z" fill="#BFBFBF"/>
<path d="M20.1814 10.7261L20.1793 11.4245L18.5704 10.4953L18.5725 9.79688L20.1814 10.7261Z" fill="#A1A3A4"/>
<path d="M25.2512 7.69858L23.6524 8.62788L22.0431 7.69883L23.6419 6.76953L25.2512 7.69858Z" fill="#616161"/>
<path d="M25.2494 7.69922L25.2474 8.39764L23.6485 9.32701L23.6506 8.6286L25.2494 7.69922Z" fill="#BFBFBF"/>
<path d="M23.65 8.62843L23.648 9.32693L22.0392 8.39764L22.0412 7.69922L23.65 8.62843Z" fill="#A1A3A4"/>
<path d="M14.2569 18.8514L11.6861 17.3575L11.678 14.5L14.2486 15.9937L14.2569 18.8514Z" fill="#BAB7B1"/>
<path d="M14.0935 18.5734L11.8487 17.2689L11.8419 14.7738L14.0868 16.078L14.0935 18.5734Z" fill="#616161"/>
<path d="M12.2072 17.1261L12.201 14.9809L11.8439 14.7734L11.8507 17.2686L14.0957 18.5733L14.0947 18.223L12.2072 17.1261Z" fill="#F5F5F5"/>
<path d="M14.2569 23.5076L11.6861 22.0137L11.678 19.1562L14.2486 20.65L14.2569 23.5076Z" fill="#BAB7B1"/>
<path d="M14.0935 23.2297L11.8487 21.9251L11.8419 19.43L14.0868 20.7343L14.0935 23.2297Z" fill="#616161"/>
<path d="M12.2072 21.7824L12.201 19.6372L11.8439 19.4297L11.8507 21.9248L14.0957 23.2295L14.0947 22.8792L12.2072 21.7824Z" fill="#F5F5F5"/>
<path d="M14.2569 28.1678L11.6861 26.6739L11.678 23.8164L14.2486 25.3102L14.2569 28.1678Z" fill="#BAB7B1"/>
<path d="M14.0935 27.8898L11.8487 26.5853L11.8419 24.0902L14.0868 25.3944L14.0935 27.8898Z" fill="#616161"/>
<path d="M12.2072 26.4464L12.201 24.3012L11.8439 24.0938L11.8507 26.5889L14.0957 27.8936L14.0947 27.5433L12.2072 26.4464Z" fill="#F5F5F5"/>
<path d="M18.4054 21.2537L15.8345 19.7598L15.8265 16.9023L18.3973 18.3963L18.4054 21.2537Z" fill="#BAB7B1"/>
<path d="M18.2421 20.9794L15.9974 19.6748L15.9905 17.1797L18.235 18.4841L18.2421 20.9794Z" fill="#616161"/>
<path d="M16.3595 19.5324L16.3533 17.3872L15.9962 17.1797L16.0031 19.6748L18.2481 20.9795L18.2471 20.6292L16.3595 19.5324Z" fill="#F5F5F5"/>
<path d="M18.4055 25.9139L15.8346 24.42L15.8266 21.5625L18.3974 23.0564L18.4055 25.9139Z" fill="#BAB7B1"/>
<path d="M18.2421 25.6356L15.9974 24.3311L15.9905 21.836L18.235 23.1404L18.2421 25.6356Z" fill="#616161"/>
<path d="M16.3595 24.1886L16.3533 22.0434L15.9962 21.8359L16.0031 24.3311L18.2481 25.6358L18.2471 25.2855L16.3595 24.1886Z" fill="#F5F5F5"/>
<path d="M18.4054 30.5701L15.8345 29.0762L15.8265 26.2187L18.3973 27.7127L18.4054 30.5701Z" fill="#BAB7B1"/>
<path d="M18.2421 30.2958L15.9974 28.9913L15.9905 26.4962L18.235 27.8005L18.2421 30.2958Z" fill="#616161"/>
<path d="M16.3595 28.8527L16.3533 26.7075L15.9962 26.5L16.0031 28.9951L18.2481 30.2998L18.2471 29.9496L16.3595 28.8527Z" fill="#F5F5F5"/>
<path d="M23.1671 24.0116L20.5962 22.5176L20.5882 19.6602L23.159 21.1541L23.1671 24.0116Z" fill="#BAB7B1"/>
<path d="M23.0037 23.7372L20.7589 22.4327L20.7521 19.9376L22.9965 21.2419L23.0037 23.7372Z" fill="#616161"/>
<path d="M21.1095 22.2902L21.1033 20.145L20.7462 19.9375L20.7531 22.4326L22.9981 23.7373L22.9971 23.3871L21.1095 22.2902Z" fill="#F5F5F5"/>
<path d="M23.1671 28.6717L20.5962 27.1778L20.5882 24.3203L23.159 25.8142L23.1671 28.6717Z" fill="#BAB7B1"/>
<path d="M23.0038 28.3934L20.7591 27.0889L20.7522 24.5938L22.9967 25.8982L23.0038 28.3934Z" fill="#616161"/>
<path d="M21.1095 26.9464L21.1033 24.8012L20.7462 24.5938L20.7531 27.0889L22.9981 28.3936L22.9971 28.0433L21.1095 26.9464Z" fill="#F5F5F5"/>
<path d="M23.1671 33.3319L20.5962 31.8379L20.5882 28.9805L23.159 30.4744L23.1671 33.3319Z" fill="#BAB7B1"/>
<path d="M23.0037 33.0536L20.7589 31.7491L20.7521 29.254L22.9965 30.5583L23.0037 33.0536Z" fill="#616161"/>
<path d="M21.1095 31.6066L21.1033 29.4614L20.7462 29.2539L20.7531 31.749L22.9981 33.0537L22.9971 32.7035L21.1095 31.6066Z" fill="#F5F5F5"/>
<path d="M23.836 4.67188V6.09732L35.1127 12.6503L36.343 11.9402L23.836 4.67188Z" fill="#E0E0E0"/>
<path d="M37.5353 25.5273L37.4919 40.7998L50.7847 48.4747L50.8277 33.2022L37.5353 25.5273Z" fill="#BDBDBD"/>
<path d="M50.8328 33.2035L50.7894 48.476L64.5296 40.4915L64.5729 25.2186L50.8328 33.2035Z" fill="#F5F5F5"/>
<path d="M37.5821 11.9766L37.5388 27.2491L50.8319 34.9236L50.8752 19.6511L37.5821 11.9766Z" fill="#BDBDBD"/>
<path d="M50.8797 19.6485L50.8363 34.9213L64.5764 26.9361L64.6198 11.6639L50.8797 19.6485Z" fill="#F5F5F5"/>
<path d="M37.5821 11.9766L50.8746 19.6512L64.615 11.6662L51.3226 3.99157L37.5821 11.9766Z" fill="#9E9E9E"/>
<path d="M40.0555 12.654L51.3031 6.11758L62.1447 12.377L50.8971 18.9134L40.0555 12.654Z" fill="white"/>
<path d="M63.375 11.6627L62.1477 12.376L51.3063 6.1166L51.3065 4.69465L63.375 11.6627Z" fill="#E0E0E0"/>
<path d="M53.1064 15.8521L51.1067 17.014L49.0947 15.8524L51.094 14.6903L53.1064 15.8521Z" fill="#616161"/>
<path d="M52.5605 11.3799L51.1074 12.2245L49.6448 11.38L51.0981 10.5358L52.5605 11.3799Z" fill="#616161"/>
<path d="M55.4277 9.68459L53.9745 10.5292L52.512 9.68473L53.9653 8.84046L55.4277 9.68459Z" fill="#616161"/>
<path d="M48.7372 37.6139L48.7723 49.9437L38.041 56.1392L38.0059 43.8094L48.7372 37.6139Z" fill="#F5F5F5"/>
<path d="M38.0394 56.1391L26.9468 49.6927L26.9118 37.3636L38.0043 43.8095L38.0394 56.1391Z" fill="#BDBDBD"/>
<path d="M29.9476 43.1546L27.8777 41.9517L27.871 39.6509L29.9411 40.8539L29.9476 43.1546Z" fill="#BAB7B1"/>
<path d="M29.8123 42.9293L28.0048 41.879L27.9989 39.8696L29.8067 40.9201L29.8123 42.9293Z" fill="#616161"/>
<path d="M28.2929 41.7619L28.2881 40.0347L28.0001 39.8672L28.006 41.8765L29.8137 42.9273L29.813 42.6451L28.2929 41.7619Z" fill="#F5F5F5"/>
<path d="M29.9476 46.9046L27.8777 45.7017L27.871 43.4009L29.9408 44.6037L29.9476 46.9046Z" fill="#BAB7B1"/>
<path d="M29.8123 46.6832L28.0048 45.6329L27.9989 43.6235L29.8067 44.674L29.8123 46.6832Z" fill="#616161"/>
<path d="M28.2929 45.5158L28.2881 43.7883L28.0001 43.6211L28.006 45.6304L29.8137 46.6812L29.813 46.399L28.2929 45.5158Z" fill="#F5F5F5"/>
<path d="M29.9476 50.6546L27.8777 49.4517L27.871 47.1509L29.9411 48.3539L29.9476 50.6546Z" fill="#BAB7B1"/>
<path d="M29.8123 50.4371L28.0048 49.3868L27.9989 47.3774L29.8067 48.4279L29.8123 50.4371Z" fill="#616161"/>
<path d="M28.2929 49.2694L28.2881 47.5422L28.0001 47.375L28.006 49.3843L29.8137 50.4347L29.813 50.1526L28.2929 49.2694Z" fill="#F5F5F5"/>
<path d="M33.2872 45.0923L31.2171 43.8892L31.2104 41.5883L33.2807 42.7912L33.2872 45.0923Z" fill="#BAB7B1"/>
<path d="M33.1561 44.8668L31.3485 43.8165L31.3427 41.8071L33.1505 42.8576L33.1561 44.8668Z" fill="#616161"/>
<path d="M31.6367 43.6991L31.6318 41.9719L31.3439 41.8047L31.3497 43.814L33.1574 44.8644L33.1567 44.5823L31.6367 43.6991Z" fill="#F5F5F5"/>
<path d="M33.2872 48.8427L31.217 47.6399L31.2104 45.3384L33.2808 46.5418L33.2872 48.8427Z" fill="#BAB7B1"/>
<path d="M33.2872 52.4443L31.217 51.2414L31.2104 48.94L33.2808 50.1433L33.2872 52.4443Z" fill="#BAB7B1"/>
<path d="M33.1561 48.6168L31.3485 47.5665L31.3427 45.5571L33.1505 46.6076L33.1561 48.6168Z" fill="#616161"/>
<path d="M33.1561 52.2223L31.3485 51.172L31.3427 49.1626L33.1505 50.2131L33.1561 52.2223Z" fill="#616161"/>
<path d="M31.6367 47.4569L31.6318 45.7297L31.3439 45.5625L31.3497 47.5718L33.1574 48.6222L33.1567 48.3401L31.6367 47.4569Z" fill="#F5F5F5"/>
<path d="M31.6367 51.0546L31.6318 49.3274L31.3439 49.1602L31.3497 51.1695L33.1574 52.2199L33.1567 51.9378L31.6367 51.0546Z" fill="#F5F5F5"/>
<path d="M37.1192 47.311L35.0491 46.1079L35.0428 43.8073L37.1127 45.0099L37.1192 47.311Z" fill="#BAB7B1"/>
<path d="M36.9881 47.0895L35.1806 46.0391L35.1747 44.0298L36.9822 45.0801L36.9881 47.0895Z" fill="#616161"/>
<path d="M35.4687 45.926L35.4639 44.1985L35.1759 44.0312L35.1817 46.0406L36.9894 47.0913L36.9887 46.8092L35.4687 45.926Z" fill="#F5F5F5"/>
<path d="M37.1193 51.0615L35.049 49.8586L35.0427 47.5574L37.1126 48.7608L37.1193 51.0615Z" fill="#BAB7B1"/>
<path d="M37.1193 54.6669L35.049 53.4641L35.0427 51.1628L37.1126 52.3663L37.1193 54.6669Z" fill="#BAB7B1"/>
<path d="M36.9881 50.8434L35.1806 49.7931L35.1747 47.7837L36.9822 48.834L36.9881 50.8434Z" fill="#616161"/>
<path d="M36.9881 54.4449L35.1806 53.3946L35.1747 51.3852L36.9822 52.4355L36.9881 54.4449Z" fill="#616161"/>
<path d="M35.4687 49.676L35.4639 47.9485L35.1759 47.7812L35.1817 49.7909L36.9894 50.8413L36.9887 50.5592L35.4687 49.676Z" fill="#F5F5F5"/>
<path d="M35.4687 53.2776L35.4639 51.55L35.1759 51.3828L35.1817 53.3925L36.9894 54.4429L36.9887 54.1608L35.4687 53.2776Z" fill="#F5F5F5"/>
<path d="M48.6981 26.6725L48.7332 39.0023L38.002 45.1977L37.9669 32.868L48.6981 26.6725Z" fill="#F5F5F5"/>
<path d="M38.0043 45.1976L26.9117 38.7513L26.8766 26.4222L37.9691 32.8681L38.0043 45.1976Z" fill="#BDBDBD"/>
<path d="M37.9641 32.8676L26.8715 26.4212L37.6028 20.2255L48.6954 26.6719L37.9641 32.8676Z" fill="#9E9E9E"/>
<path d="M46.7032 27.2188L37.6234 21.942L28.8709 26.9951L37.951 32.272L46.7032 27.2188Z" fill="#EEEEEE"/>
<path d="M29.9083 32.2099L27.8381 31.0071L27.8318 28.7058L29.9017 29.9092L29.9083 32.2099Z" fill="#BAB7B1"/>
<path d="M29.7771 31.9918L27.9696 30.9415L27.9637 28.9321L29.7713 29.9824L29.7771 31.9918Z" fill="#616161"/>
<path d="M28.2535 30.8244L28.2487 29.0972L27.961 28.9297L27.9665 30.9394L29.7742 31.9898L29.7736 31.7076L28.2535 30.8244Z" fill="#F5F5F5"/>
<path d="M29.9083 35.9677L27.8381 34.7649L27.8318 32.4636L29.9016 33.6666L29.9083 35.9677Z" fill="#BAB7B1"/>
<path d="M29.7771 35.7418L27.9696 34.6915L27.9637 32.6821L29.7713 33.7324L29.7771 35.7418Z" fill="#616161"/>
<path d="M28.2535 34.5783L28.2487 32.8508L27.961 32.6836L27.9665 34.6933L29.7742 35.7437L29.7736 35.4615L28.2535 34.5783Z" fill="#F5F5F5"/>
<path d="M29.9083 39.7177L27.8381 38.5149L27.8318 36.2136L29.9017 37.4171L29.9083 39.7177Z" fill="#BAB7B1"/>
<path d="M29.7771 39.4918L27.9696 38.4415L27.9637 36.4321L29.7713 37.4824L29.7771 39.4918Z" fill="#616161"/>
<path d="M28.2535 38.328L28.2487 36.6008L27.961 36.4336L27.9665 38.4429L29.7742 39.4933L29.7736 39.2112L28.2535 38.328Z" fill="#F5F5F5"/>
<path d="M33.2482 34.1466L31.1785 32.9435L31.1717 30.6425L33.2417 31.8458L33.2482 34.1466Z" fill="#BAB7B1"/>
<path d="M33.117 33.9293L31.3095 32.879L31.3036 30.8696L33.1111 31.9199L33.117 33.9293Z" fill="#616161"/>
<path d="M31.5976 32.7616L31.5928 31.0344L31.3048 30.8672L31.3106 32.8765L33.1183 33.9269L33.1177 33.6448L31.5976 32.7616Z" fill="#F5F5F5"/>
<path d="M33.2484 37.9006L31.1785 36.6978L31.1714 34.3968L33.2419 35.6L33.2484 37.9006Z" fill="#BAB7B1"/>
<path d="M33.117 37.6793L31.3095 36.629L31.3036 34.6196L33.1111 35.6699L33.117 37.6793Z" fill="#616161"/>
<path d="M31.5976 36.5116L31.5928 34.7844L31.3048 34.6172L31.3106 36.6265L33.1183 37.6769L33.1177 37.3948L31.5976 36.5116Z" fill="#F5F5F5"/>
<path d="M33.2484 41.6546L31.1785 40.4517L31.1714 38.1507L33.2419 39.3539L33.2484 41.6546Z" fill="#BAB7B1"/>
<path d="M33.117 41.4293L31.3095 40.379L31.3036 38.3696L33.1111 39.4199L33.117 41.4293Z" fill="#616161"/>
<path d="M31.5976 40.2619L31.5928 38.5347L31.3048 38.3672L31.3106 40.3769L33.1183 41.4273L33.1177 41.1451L31.5976 40.2619Z" fill="#F5F5F5"/>
<path d="M37.0802 36.3736L35.0104 35.1708L35.0033 32.8698L37.0736 34.0725L37.0802 36.3736Z" fill="#BAB7B1"/>
<path d="M36.949 36.1481L35.1415 35.0977L35.1356 33.0884L36.9434 34.1388L36.949 36.1481Z" fill="#616161"/>
<path d="M35.4296 34.9846L35.4248 33.2571L35.1368 33.0898L35.1427 35.0992L36.9504 36.1499L36.9497 35.8678L35.4296 34.9846Z" fill="#F5F5F5"/>
<path d="M37.0804 40.1233L35.0106 38.9205L35.0035 36.6195L37.0739 37.8226L37.0804 40.1233Z" fill="#BAB7B1"/>
<path d="M36.949 39.902L35.1415 38.8516L35.1356 36.8423L36.9434 37.8927L36.949 39.902Z" fill="#616161"/>
<path d="M35.4296 38.7342L35.4248 37.0067L35.1368 36.8398L35.1427 38.8492L36.9504 39.8996L36.9497 39.6175L35.4296 38.7342Z" fill="#F5F5F5"/>
<path d="M37.0802 43.8736L35.0104 42.6708L35.0033 40.3698L37.0736 41.5725L37.0802 43.8736Z" fill="#BAB7B1"/>
<path d="M36.949 43.6559L35.1415 42.6056L35.1356 40.5962L36.9434 41.6467L36.949 43.6559Z" fill="#616161"/>
<path d="M35.4296 42.4882L35.4248 40.7606L35.1368 40.5938L35.1427 42.6031L36.9504 43.6535L36.9497 43.3714L35.4296 42.4882Z" fill="#F5F5F5"/>
<path d="M37.6212 20.793V21.9408L46.7013 27.2176L47.6922 26.6455L37.6212 20.793Z" fill="#E0E0E0"/>
<path d="M39.5869 28.4993L37.3867 29.7778L35.1725 28.4998L37.3727 27.2213L39.5869 28.4993Z" fill="#616161"/>
<path d="M38.9822 23.5814L37.3833 24.5107L35.7741 23.5812L37.3729 22.6524L38.9822 23.5814Z" fill="#616161"/>
<path d="M62.9895 16.5058L62.9846 14.7969L62.7421 14.9369L62.7459 16.3073L53.2501 21.7896L53.2508 22.1285L62.9895 16.5058Z" fill="#424242"/>
<path d="M62.7384 14.9375L53.2422 20.4202L53.2466 21.7902L62.7422 16.3079L62.7384 14.9375Z" fill="#616161"/>
<path d="M62.9895 19.8769L62.9846 18.168L62.7421 18.308L62.7459 19.6784L53.2501 25.1607L53.2508 25.4996L62.9895 19.8769Z" fill="#424242"/>
<path d="M62.7384 18.3125L53.2422 23.7952L53.2466 25.1652L62.7422 19.6829L62.7384 18.3125Z" fill="#616161"/>
<path d="M62.9895 23.248L62.9846 21.5391L62.7421 21.6791L62.7459 23.0495L53.2501 28.5318L53.2508 28.8707L62.9895 23.248Z" fill="#424242"/>
<path d="M62.7384 21.6797L53.2422 27.1623L53.2466 28.5324L62.7422 23.0501L62.7384 21.6797Z" fill="#616161"/>
<path d="M62.9895 26.6191L62.9846 24.9102L62.7421 25.0502L62.7459 26.4206L53.2501 31.9029L53.2508 32.2418L62.9895 26.6191Z" fill="#424242"/>
<path d="M62.7384 25.0469L53.2422 30.5295L53.2466 31.8996L62.7422 26.4173L62.7384 25.0469Z" fill="#616161"/>
<path d="M62.9895 29.9902L62.9846 28.2812L62.7421 28.4213L62.7459 29.7917L53.2501 35.274L53.2508 35.6129L62.9895 29.9902Z" fill="#424242"/>
<path d="M39.5629 27.8171L37.3627 29.0956L35.1485 27.8176L37.3487 26.5391L39.5629 27.8171Z" fill="#616161"/>
<path d="M39.5624 27.8203L39.5597 28.7816L37.3595 30.0601L37.3619 29.0987L39.5624 27.8203Z" fill="#BFBFBF"/>
<path d="M37.3612 29.0987L37.3585 30.06L35.1446 28.7813L35.1474 27.8203L37.3612 29.0987Z" fill="#A1A3A4"/>
<path d="M62.7384 28.418L53.2422 33.9006L53.2466 35.2707L62.7422 29.7884L62.7384 28.418Z" fill="#616161"/>
<path d="M62.9895 33.3574L62.9846 31.6484L62.7421 31.7885L62.7459 33.1589L53.2501 38.6411L53.2508 38.98L62.9895 33.3574Z" fill="#424242"/>
<path d="M62.7384 31.7891L53.2422 37.2717L53.2466 38.6418L62.7422 33.1595L62.7384 31.7891Z" fill="#616161"/>
<path d="M62.9895 36.7246L62.9846 35.0156L62.7421 35.1557L62.7459 36.5261L53.2501 42.0083L53.2508 42.3472L62.9895 36.7246Z" fill="#424242"/>
<path d="M62.7384 35.1562L53.2422 40.6389L53.2466 42.009L62.7422 36.5267L62.7384 35.1562Z" fill="#616161"/>
<path d="M62.9895 40.0918L62.9846 38.3828L62.7421 38.5228L62.7459 39.8932L53.2501 45.3755L53.2508 45.7144L62.9895 40.0918Z" fill="#424242"/>
<path d="M62.7384 38.5273L53.2422 44.01L53.2466 45.3801L62.7422 39.8978L62.7384 38.5273Z" fill="#616161"/>
<path d="M36.1059 31.6861L36.2225 31.7532L36.2282 29.627L36.1121 29.5598L36.1059 31.6861Z" fill="#BDBDBD"/>
<path d="M36.2304 29.627L36.2245 31.7533L36.3613 31.6735L36.3672 29.5473L36.2304 29.627Z" fill="#E0E0E0"/>
<path d="M30.2877 28.3346L30.4045 28.4021L30.4104 26.2761L30.2941 26.2085L30.2877 28.3346Z" fill="#BDBDBD"/>
<path d="M30.41 26.2755L30.4042 28.4018L30.541 28.322L30.5469 26.1957L30.41 26.2755Z" fill="#E0E0E0"/>
<path d="M36.3065 25.8314L36.292 30.9576L29.4388 27.0012L29.4532 21.875L36.3065 25.8314Z" fill="#90CDF3"/>
<path d="M36.3075 25.8347L36.7954 25.5512L36.7809 30.6774L36.2931 30.9609L36.3075 25.8347Z" fill="#44729A"/>
<path d="M29.4538 21.8738L29.9416 21.5903L36.7947 25.5468L36.3068 25.8303L29.4538 21.8738Z" fill="#4DA4E3"/>
<path d="M46.9252 45.3657L46.4934 45.1145L46.5108 51.2253L46.9425 51.476L46.9252 45.3657Z" fill="#424242"/>
<path d="M44.738 46.6325L44.7552 52.7431L46.9444 51.4793L46.9272 45.3688L44.738 46.6325Z" fill="#90CDF3"/>
<path d="M44.509 46.7634L44.0773 46.5126L44.0947 52.6229L44.5264 52.8736L44.509 46.7634Z" fill="#424242"/>
<path d="M42.32 48.0278L42.3372 54.1383L44.5267 52.8742L44.5095 46.7634L42.32 48.0278Z" fill="#90CDF3"/>
<path d="M47.2032 45.0234L42.0392 48.0051L42.0571 54.2987L42.3368 54.1369L42.3196 48.0264L44.5085 46.7623L44.526 52.8732L44.7521 52.7425L44.7349 46.6319L46.9238 45.3678L46.9414 51.4787L47.2211 51.317L47.2032 45.0234Z" fill="#212121"/>
<path d="M42.0363 48.0026L41.6045 47.7514L41.6225 54.0453L42.0544 54.2964L42.0363 48.0026Z" fill="#424242"/>
<path d="M47.2032 45.0234L46.7714 44.7722L41.6071 47.754L42.0395 48.005L47.2032 45.0234Z" fill="#616161"/>
<path d="M48.3957 40.459L48.3909 38.75L48.1483 38.89L48.1521 40.2604L38.6564 45.7427L38.657 46.0816L48.3957 40.459Z" fill="#424242"/>
<path d="M48.1446 38.8906L38.6485 44.3733L38.6529 45.7434L48.1484 40.2611L48.1446 38.8906Z" fill="#616161"/>
<path d="M30.3595 25.0814C30.3595 24.9548 30.3595 24.8915 30.3662 24.8423C30.407 24.5452 30.6253 24.4193 30.9032 24.5326C30.9492 24.5514 31.004 24.5831 31.1137 24.6464L34.5271 26.6171C34.6368 26.6805 34.6917 26.7121 34.7377 26.7465C35.0156 26.954 35.2338 27.3319 35.2746 27.6762C35.2814 27.7331 35.2814 27.7964 35.2814 27.923C35.2814 28.0496 35.2814 28.1129 35.2746 28.162C35.2338 28.4592 35.0156 28.585 34.7377 28.4717C34.6917 28.4529 34.6368 28.4213 34.5271 28.3579L31.1137 26.3872C31.004 26.3239 30.9492 26.2922 30.9032 26.2579C30.6253 26.0503 30.407 25.6724 30.3662 25.3282C30.3595 25.2712 30.3595 25.2079 30.3595 25.0814Z" fill="#555555"/>
<path d="M30.2032 25.1712C30.2032 25.0446 30.2032 24.9813 30.21 24.9322C30.2508 24.635 30.469 24.5091 30.7469 24.6225C30.7929 24.6412 30.8477 24.6729 30.9574 24.7362L34.3709 26.707C34.4806 26.7703 34.5354 26.802 34.5814 26.8363C34.8593 27.0439 35.0776 27.4217 35.1184 27.766C35.1251 27.823 35.1251 27.8862 35.1251 28.0128C35.1251 28.1394 35.1251 28.2027 35.1184 28.2519C35.0776 28.549 34.8593 28.6749 34.5814 28.5615C34.5354 28.5428 34.4806 28.5111 34.3709 28.4478L30.9574 26.477C30.8477 26.4137 30.7929 26.382 30.7469 26.3477C30.469 26.1402 30.2508 25.7623 30.21 25.418C30.2032 25.3611 30.2032 25.2978 30.2032 25.1712Z" fill="white"/>
<path fill-rule="evenodd" clip-rule="evenodd" d="M30.9025 25.1464C30.9929 25.1986 31.0711 25.2846 31.1099 25.3668L31.3057 25.4798C31.3057 25.4798 30.9493 25.5485 30.5215 25.4815L30.5001 25.4203V25.0147L30.6948 25.1271C30.7337 25.0898 30.8121 25.0942 30.9025 25.1464ZM31.3058 25.5066L31.3057 25.5313C31.1052 25.6718 30.6498 25.763 30.6498 25.763L30.5669 25.6023C30.8317 25.6179 31.3058 25.5066 31.3058 25.5066ZM30.7157 25.8746C30.943 25.7987 31.3058 25.5652 31.3058 25.5652L31.3057 25.6176C31.1459 25.8237 30.8203 26.0212 30.8203 26.0212L30.7157 25.8746ZM30.9025 26.1147L30.9226 26.1263C30.9226 26.1263 31.1822 26.11 31.3057 25.9099V25.6781C31.3057 25.6781 31.0068 26.0773 30.9025 26.1147Z" fill="url(#paint2_linear_22748_5217)"/>
<path fill-rule="evenodd" clip-rule="evenodd" d="M34.1521 27.6802L34.152 27.7371L34.0626 27.6855L34.0627 27.2281L34.1522 27.2798V27.32C34.1872 27.2971 34.2354 27.3044 34.2845 27.3354C34.3907 27.4023 34.4729 27.5358 34.4696 27.664C34.4665 27.7845 34.3867 27.8377 34.2845 27.7789C34.2465 27.757 34.2112 27.7229 34.1819 27.683V27.5919C34.2022 27.6297 34.2315 27.6613 34.2639 27.6801C34.3255 27.7156 34.3756 27.6871 34.3754 27.6096C34.3753 27.5282 34.327 27.4466 34.2639 27.4104C34.2034 27.3757 34.1539 27.3995 34.1524 27.477L34.152 27.4767V27.6801L34.1521 27.6802Z" fill="#424242"/>
<path fill-rule="evenodd" clip-rule="evenodd" d="M34.8132 27.7478L34.6984 27.6815V28.0518L34.607 27.9991V27.6288L34.4923 27.5625V27.4648L34.8132 27.6501V27.7478Z" fill="#424242"/>
<path fill-rule="evenodd" clip-rule="evenodd" d="M31.8634 26.4133V25.9453L31.9548 25.9981V26.1687L32.1171 26.2624V26.0918L32.2085 26.1446V26.6125L32.1171 26.5598V26.3601L31.9548 26.2664V26.4661L31.8634 26.4133Z" fill="#424242"/>
<path fill-rule="evenodd" clip-rule="evenodd" d="M32.5903 26.4009V26.5203C32.5573 26.4637 32.5203 26.4235 32.4794 26.3998C32.4445 26.3797 32.4156 26.3764 32.3926 26.3899C32.3702 26.403 32.359 26.4317 32.359 26.4758C32.359 26.5214 32.3708 26.5647 32.3944 26.6059C32.4169 26.6434 32.4445 26.6717 32.4775 26.6907C32.5228 26.7169 32.5605 26.7191 32.5903 26.6972V26.8156C32.5573 26.8204 32.5175 26.8094 32.471 26.7825C32.4081 26.7462 32.3584 26.695 32.3217 26.629C32.2844 26.5626 32.2657 26.4947 32.2657 26.4252C32.2657 26.3535 32.2856 26.3061 32.3254 26.2827C32.364 26.2601 32.4155 26.2662 32.482 26.3046C32.52 26.3265 32.5568 26.3599 32.5903 26.4009Z" fill="#424242"/>
<path fill-rule="evenodd" clip-rule="evenodd" d="M32.9615 26.6158V26.7352C32.9285 26.6786 32.8915 26.6384 32.8505 26.6147C32.8163 26.5949 32.7302 26.5654 32.7302 26.6907C32.7302 26.7894 32.788 26.8706 32.8486 26.9056C32.894 26.9318 32.9316 26.9339 32.9615 26.9121V27.0305C32.9285 27.0353 32.8887 27.0242 32.8421 26.9973C32.7793 26.9611 32.7295 26.9099 32.6928 26.8439C32.6555 26.7775 32.6368 26.7095 32.6368 26.64C32.6368 26.5684 32.6567 26.5209 32.6965 26.4976C32.7351 26.475 32.7887 26.4822 32.8552 26.5206C32.8931 26.5425 32.9279 26.5747 32.9615 26.6158Z" fill="#424242"/>
<path fill-rule="evenodd" clip-rule="evenodd" d="M33.8822 27.1778V27.1245L33.9735 27.1773V27.6321L33.8822 27.5793V27.5337C33.8517 27.5574 33.8125 27.5554 33.7646 27.5278C33.7068 27.4944 33.6605 27.4437 33.6256 27.3759C33.5914 27.3084 33.5743 27.2413 33.5743 27.1748C33.5743 27.1024 33.5927 27.0551 33.6293 27.0329C33.6667 27.0103 33.7123 27.0132 33.7658 27.0441C33.8149 27.0725 33.8535 27.1178 33.8822 27.1778ZM33.7767 27.1473C33.7349 27.1231 33.6676 27.1194 33.6676 27.2308C33.6676 27.328 33.7253 27.4095 33.7767 27.4392C33.8558 27.4849 33.8877 27.428 33.8877 27.359C33.8877 27.2729 33.8443 27.1863 33.7767 27.1473Z" fill="#424242"/>
<path fill-rule="evenodd" clip-rule="evenodd" d="M31.5291 25.7559V25.9739C31.5291 26.0633 31.5321 26.1298 31.6008 26.1694C31.6876 26.2195 31.6839 26.1344 31.6839 26.0434V25.8456L31.7753 25.8984V26.3664L31.6839 26.3136V26.2685C31.6605 26.2834 31.6205 26.2791 31.5776 26.2543C31.526 26.2245 31.4896 26.1872 31.4641 26.1312C31.4479 26.0951 31.4376 26.0397 31.4376 25.9818V25.7031L31.5291 25.7559Z" fill="#424242"/>
<path d="M33.0626 26.6404L33.176 26.7058L33.2699 27.0216L33.3777 26.8223L33.4901 26.8872L33.5271 27.3756L33.4319 27.3206L33.4074 26.973L33.2879 27.1899L33.2512 27.1687L33.1436 26.8282L33.1119 27.1358L33.0157 27.0803L33.0626 26.6404Z" fill="#424242"/>
<defs>
<radialGradient id="paint0_radial_22748_5217" cx="0" cy="0" r="1" gradientUnits="userSpaceOnUse" gradientTransform="translate(48.2909 47.8407) rotate(26.357) scale(38.1331 28.6807)">
<stop offset="0.42" stop-color="#DB4676"/>
<stop offset="1" stop-color="#DB4676" stop-opacity="0"/>
</radialGradient>
<linearGradient id="paint1_linear_22748_5217" x1="47.7959" y1="73.3294" x2="59.9141" y2="55.6796" gradientUnits="userSpaceOnUse">
<stop stop-opacity="0"/>
<stop offset="1" stop-color="#1B1B1B" stop-opacity="0.43"/>
</linearGradient>
<linearGradient id="paint2_linear_22748_5217" x1="30.5001" y1="24.9936" x2="31.4266" y2="26.2591" gradientUnits="userSpaceOnUse">
<stop stop-color="#DB4676"/>
<stop offset="0.310416" stop-color="#B95B93"/>
<stop offset="0.586458" stop-color="#986EAF"/>
<stop offset="1" stop-color="#4DA4E3"/>
</linearGradient>
</defs>
</svg>
